<svg width="66" height="66" viewBox="0 0 66 66" fill="none" xmlns="http://www.w3.org/2000/svg">
<path fill-rule="evenodd" clip-rule="evenodd" d="M33.2 65.6C41.8991 65.6 50.2419 62.1443 56.3931 55.9931C62.5443 49.8419 66 41.4991 66 32.8C66 24.1009 62.5443 15.7581 56.3931 9.6069C50.2419 3.4557 41.8991 0 33.2 0C24.5009 0 16.1581 3.4557 10.0069 9.6069C3.8557 15.7581 0.399994 24.1009 0.399994 32.8C0.399994 41.4991 3.8557 49.8419 10.0069 55.9931C16.1581 62.1443 24.5009 65.6 33.2 65.6ZM31.3755 21.1888C30.758 20.7768 30.0403 20.5402 29.2989 20.5042C28.5575 20.4682 27.8202 20.6341 27.1658 20.9843C26.5113 21.3345 25.9641 21.8558 25.5827 22.4926C25.2013 23.1293 24.9999 23.8577 25 24.6V41C24.9999 41.7423 25.2013 42.4707 25.5827 43.1074C25.9641 43.7442 26.5113 44.2655 27.1658 44.6157C27.8202 44.9659 28.5575 45.1318 29.2989 45.0958C30.0403 45.0598 30.758 44.8232 31.3755 44.4112L43.6755 36.2112C44.237 35.8368 44.6974 35.3295 45.0159 34.7345C45.3343 34.1394 45.5009 33.4749 45.5009 32.8C45.5009 32.1251 45.3343 31.4606 45.0159 30.8655C44.6974 30.2705 44.237 29.7632 43.6755 29.3888L31.3755 21.1888Z" fill="white"/>
</svg>
